HIERARCHY
ROOT Hips
{
    OFFSET 0.000000 0.000000 0.000000
    CHANNELS 6 Xposition Yposition Zposition Zrotation Xrotation Yrotation
    JOINT Spine
    {
        OFFSET -0.000000 14.517291 0.000000
        CHANNELS 3 Zrotation Xrotation Yrotation
        JOINT Spine1
        {
            OFFSET -0.000000 37.558300 0.000000
            CHANNELS 3 Zrotation Xrotation Yrotation
            JOINT Neck
            {
                OFFSET -0.000000 37.404057 3.400369
                CHANNELS 3 Zrotation Xrotation Yrotation
                JOINT Head
                {
                    OFFSET -0.000000 24.785618 -3.540803
                    CHANNELS 3 Zrotation Xrotation Yrotation
                    End Site
                    {
                        OFFSET -0.000000 35.408028 0.000000
                    }
                }
            }
            JOINT LeftShoulder
            {
                OFFSET 6.992933 33.973492 -0.192664
                CHANNELS 3 Zrotation Xrotation Yrotation
                JOINT LeftArm
                {
                    OFFSET 21.527611 0.000000 0.000000
                    CHANNELS 3 Zrotation Xrotation Yrotation
                    JOINT LeftForeArm
                    {
                        OFFSET 56.353916 0.000000 0.000000
                        CHANNELS 3 Zrotation Xrotation Yrotation
                        JOINT LeftHand
                        {
                            OFFSET 47.774071 0.000000 0.000000
                            CHANNELS 3 Zrotation Xrotation Yrotation
                            End Site
                            {
                                OFFSET 26.556021 0.000000 0.000000
                            }
                        }
                    }
                }
            }
            JOINT RightShoulder
            {
                OFFSET -7.065357 33.973492 -0.192664
                CHANNELS 3 Zrotation Xrotation Yrotation
                JOINT RightArm
                {
                    OFFSET -21.527611 0.000000 0.000000
                    CHANNELS 3 Zrotation Xrotation Yrotation
                    JOINT RightForeArm
                    {
                        OFFSET -56.353916 0.000000 0.000000
                        CHANNELS 3 Zrotation Xrotation Yrotation
                        JOINT RightHand
                        {
                            OFFSET -47.774071 0.000000 0.000000
                            CHANNELS 3 Zrotation Xrotation Yrotation
                            End Site
                            {
                                OFFSET -26.556021 0.000000 0.000000
                            }
                        }
                    }
                }
            }
        }
    }
    JOINT LeftUpLeg
    {
        OFFSET 17.704014 0.000000 0.000000
        CHANNELS 3 Zrotation Xrotation Yrotation
        JOINT LeftLeg
        {
            OFFSET -0.000000 -81.181816 0.000000
            CHANNELS 3 Zrotation Xrotation Yrotation
            JOINT LeftFoot
            {
                OFFSET -0.000000 -62.821102 0.000000
                CHANNELS 3 Zrotation Xrotation Yrotation
                JOINT LeftToeBase
                {
                    OFFSET -0.000000 -11.507608 26.556021
                    CHANNELS 3 Zrotation Xrotation Yrotation
                    End Site
                    {
                        OFFSET -0.000000 0.000000 7.081605
                    }
                }
            }
        }
    }
    JOINT RightUpLeg
    {
        OFFSET -17.704014 0.000000 0.000000
        CHANNELS 3 Zrotation Xrotation Yrotation
        JOINT RightLeg
        {
            OFFSET -0.000000 -81.181816 0.000000
            CHANNELS 3 Zrotation Xrotation Yrotation
            JOINT RightFoot
            {
                OFFSET -0.000000 -62.821102 0.000000
                CHANNELS 3 Zrotation Xrotation Yrotation
                JOINT RightToeBase
                {
                    OFFSET -0.000000 -11.507608 26.556021
                    CHANNELS 3 Zrotation Xrotation Yrotation
                    End Site
                    {
                        OFFSET -0.000000 0.000000 7.081605
                    }
                }
            }
        }
    }
}
MOTION
Frames:    7
Frame Time:    0.008333
2.917382    158.339233    -28.551050    -0.001338    -2.117240    -29.897205    1.937082    -0.283184    2.715049    2.113851    1.268983    0.879947    10.501210    1.368096    11.198528    -5.423205    0.450303    9.473895    8.115819    1.284510    -12.018380    -5.039796    4.562660    -6.009955    -9.027228    -9.290364    -83.252190    -13.005489    -13.644544    -30.871317    -4.705136    7.703982    -3.422319    38.717533    10.085952    71.017113    3.920397    -7.118654    100.833359    5.043511    -11.119418    15.648008    13.663985    -17.028048    -2.002510    -11.660911    14.580334    7.675632    -5.805108    4.633549    24.124922    0.000000    0.000000    0.000000    -11.101703    6.377763    -1.163248    7.050724    18.949804    0.728125    2.731751    -20.499884    -22.318357    0.000000    0.000000    0.000000    
2.915515    158.338928    -28.555462    -0.003783    -2.115423    -29.896170    1.923726    -0.282628    2.700652    2.131424    1.276348    0.874840    10.454908    1.407828    11.186117    -5.423602    0.375339    9.467505    8.137944    1.274878    -12.007820    -4.865644    4.535015    -5.883864    -9.002407    -8.990013    -83.367699    -13.021221    -13.347276    -30.800520    -4.714713    7.712919    -3.399370    38.728931    10.061254    70.987442    3.949426    -7.055078    100.822090    5.064615    -11.086697    15.663778    13.665101    -17.028429    -2.004556    -11.652452    14.582165    7.671047    -5.821090    4.623697    24.124140    0.000000    0.000000    0.000000    -11.100724    6.373404    -1.131840    7.074880    18.950771    0.687923    2.732020    -20.503016    -22.322668    0.000000    0.000000    0.000000    
2.912737    158.337585    -28.562263    -0.000564    -2.104877    -29.893681    1.914928    -0.288464    2.688709    2.137681    1.277681    0.870745    10.401908    1.429689    11.174019    -5.401032    0.326225    9.465014    8.164205    1.257408    -12.004670    -4.709865    4.523162    -5.756519    -8.937322    -8.739458    -83.469200    -12.989828    -13.059936    -30.850004    -4.722486    7.719108    -3.386193    38.746105    10.052350    70.963844    3.948495    -7.005473    100.810600    5.052208    -11.037640    15.651044    13.671455    -17.038237    -2.007600    -11.657701    14.571790    7.673866    -5.817350    4.635378    24.121277    0.000000    0.000000    0.000000    -11.092912    6.360758    -1.126847    7.068224    18.952934    0.687612    2.722008    -20.502491    -22.333469    0.000000    0.000000    0.000000    
2.910977    158.334869    -28.566843    -0.001443    -2.099304    -29.892731    1.904256    -0.285897    2.683338    2.144303    1.269014    0.869077    10.361590    1.473646    11.160184    -5.390231    0.259136    9.458577    8.193711    1.255871    -12.002063    -4.550215    4.409290    -5.670402    -8.919644    -8.420432    -83.528358    -12.946708    -12.742843    -30.909861    -4.720662    7.725402    -3.373987    38.745632    10.049878    70.928703    3.955294    -6.985345    100.808861    5.051798    -11.025249    15.659994    13.674399    -17.039726    -2.018720    -11.654316    14.562471    7.658918    -5.824221    4.634747    24.138395    0.000000    0.000000    0.000000    -11.088396    6.351609    -1.118948    7.073919    18.957335    0.662800    2.738972    -20.503494    -22.332357    0.000000    0.000000    0.000000    
2.904356    158.334213    -28.575754    -0.003471    -2.085851    -29.888254    1.898785    -0.298797    2.666969    2.153183    1.276098    0.863298    10.338799    1.515363    11.155958    -5.424926    0.199829    9.453573    8.207527    1.232608    -11.999609    -4.399079    4.322794    -5.568120    -8.891254    -8.158828    -83.568871    -12.929191    -12.463614    -30.966505    -4.735082    7.725650    -3.352168    38.767044    10.039947    70.900108    3.975105    -6.952082    100.801514    5.066837    -11.012590    15.675311    13.687995    -17.056341    -2.022227    -11.660854    14.567804    7.675823    -5.814727    4.640453    24.125816    0.000000    0.000000    0.000000    -11.072826    6.342741    -1.119781    7.069956    18.951406    0.626492    2.732197    -20.492134    -22.296568    0.000000    0.000000    0.000000    
2.902171    158.335495    -28.577808    -0.005053    -2.084399    -29.880642    1.905779    -0.300375    2.650776    2.132354    1.278401    0.858056    10.312501    1.541074    11.149603    -5.422638    0.166200    9.451636    8.224890    1.217087    -11.986486    -4.248484    4.209278    -5.505773    -8.902708    -7.925812    -83.575844    -12.986418    -12.219625    -31.045134    -4.731723    7.738572    -3.335716    38.755264    10.036242    70.888206    3.975263    -6.962359    100.796021    5.033176    -11.027113    15.673482    13.685317    -17.058741    -2.043564    -11.655056    14.562840    7.674226    -5.835622    4.637044    24.141525    0.000000    0.000000    0.000000    -11.072693    6.346666    -1.123147    7.075905    18.946400    0.633058    2.734754    -20.486212    -22.299692    0.000000    0.000000    0.000000    
2.899545    158.336823    -28.583061    -0.003546    -2.072044    -29.872141    1.904760    -0.310191    2.639879    2.130682    1.271616    0.854555    10.271908    1.580033    11.143346    -5.414273    0.121822    9.453332    8.231151    1.200335    -11.987206    -4.096880    4.020517    -5.455884    -8.995529    -7.626999    -83.550529    -13.023428    -11.983698    -31.122049    -4.742310    7.742676    -3.319883    38.774334    10.023930    70.861443    3.982683    -6.937435    100.785194    5.005279    -11.014726    15.662430    13.688679    -17.071136    -2.060465    -11.651094    14.553431    7.671999    -5.846502    4.644699    24.157959    0.000000    0.000000    0.000000    -11.065923    6.343029    -1.130218    7.074119    18.934166    0.647114    2.732042    -20.481527    -22.299034    0.000000    0.000000    0.000000    
